# File created by Blade
# Date/Time:  Thu Jan 22 19:29:47 2015
#---------------------------------------------------------
:version 1.10
:name HOM
:units
  mass 1.0
  length 1.000000
  angle deg
:documentation
     Acclaim Skeleton File
:root
   axis xyz
   order TX TY TZ RX RY RZ
   position 0.000000 0.000000 0.000000
   orientation 0 0 0
:bonedata
   begin
      id 1
      name RightUpLeg_dum
      direction -1.000000 0.000000 0.000000
      length 4.478084
      axis 0.0 0.0 0.0 xyz
   end
   begin
      id 2
      name LeftUpLeg_dum
      direction 1.000000 0.000000 0.000000
      length 4.478084
      axis 0.0 0.0 0.0 xyz
   end
   begin
      id 3
      name Spine_dum
      direction 0.000000 1.000000 0.000000
      length 6.068208
      axis 0.0 0.0 0.0 xyz
   end
   begin
      id 4
      name RightUpLeg
      direction 0.000000 -1.000000 0.000000
      length 16.405774
      axis 0.0 0.0 0.0 xyz
      dof rx ry rz
   end
   begin
      id 5
      name RightLeg
      direction 0.000000 -1.000000 0.000000
      length 14.644143
      axis 0.0 0.0 0.0 xyz
      dof rx ry rz
   end
   begin
      id 6
      name RightFoot
      direction 0.000000 -0.258819 0.965926
      length 5.806150
      axis 15.0 0.0 0.0 xyz
      dof rx ry rz
   end
   begin
      id 7
      name RightToeBase
      direction 0.000000 0.000000 1.000000
      length 2.952750
      axis 0.0 0.0 0.0 xyz
      dof rx ry rz
   end
   begin
      id 8
      name LeftUpLeg
      direction 0.000000 -1.000000 0.000000
      length 16.405774
      axis 0.0 0.0 0.0 xyz
      dof rx ry rz
   end
   begin
      id 9
      name LeftLeg
      direction 0.000000 -1.000000 0.000000
      length 14.644143
      axis 0.0 0.0 0.0 xyz
      dof rx ry rz
   end
   begin
      id 10
      name LeftFoot
      direction 0.000000 -0.258819 0.965926
      length 5.806150
      axis 15.0 0.0 0.0 xyz
      dof rx ry rz
   end
   begin
      id 11
      name LeftToeBase
      direction 0.000000 0.000000 1.000000
      length 2.952750
      axis 0.0 0.0 0.0 xyz
      dof rx ry rz
   end
   begin
      id 12
      name Spine
      direction 0.000000 1.000000 0.000000
      length 0.000000
      axis 0.0 0.0 0.0 xyz
      dof rx ry rz
   end
   begin
      id 13
      name Spine_dum1
      direction 0.000000 1.000000 0.000000
      length 10.013923
      axis 0.0 0.0 0.0 xyz
   end
   begin
      id 14
      name Spine_dum2
      direction 0.000000 1.000000 0.000000
      length 10.013923
      axis 0.0 0.0 0.0 xyz
   end
   begin
      id 15
      name Spine_dum3
      direction 0.000000 1.000000 0.000000
      length 15.777476
      axis 0.0 0.0 0.0 xyz
   end
   begin
      id 16
      name RightShoulder
      direction -1.000000 0.000000 0.000000
      length 7.190220
      axis 0.0 0.0 90.0 xyz
      dof rx ry rz
   end
   begin
      id 17
      name RightArm
      direction -1.000000 0.000000 0.000000
      length 10.177469
      axis 0.0 0.0 90.0 xyz
      dof rx ry rz
   end
   begin
      id 18
      name RightForeArm
      direction -1.000000 0.000000 0.000000
      length 8.392114
      axis 0.0 0.0 90.0 xyz
      dof ry rz rx
   end
   begin
      id 19
      name RightHand
      direction -1.000000 0.000000 0.000000
      length 0.000000
      axis 0.0 0.0 90.0 xyz
      dof rx ry rz
   end
   begin
      id 20
      name RightHand_dum1
      direction -1.000000 0.000000 0.000000
      length 3.937000
      axis 0.0 0.0 90.0 xyz
   end
   begin
      id 21
      name RightHand_dum2
      direction 0.000000 0.000000 0.000000
      length 0.000000
      axis 0.0 0.0 90.0 xyz
   end
   begin
      id 22
      name RightHandThumb1
      direction 0.000000 0.000000 1.000000
      length 3.937000
      axis 0.0 0.0 90.0 xyz
      dof rx rz ry
   end
   begin
      id 23
      name LeftShoulder
      direction 1.000000 0.000000 0.000000
      length 7.190220
      axis 0.0 0.0 -90.0 xyz
      dof rx ry rz
   end
   begin
      id 24
      name LeftArm
      direction 1.000000 0.000000 0.000000
      length 10.177469
      axis 0.0 0.0 -90.0 xyz
      dof rx ry rz
   end
   begin
      id 25
      name LeftForeArm
      direction 1.000000 0.000000 0.000000
      length 8.392114
      axis 0.0 0.0 -90.0 xyz
      dof ry rz rx
   end
   begin
      id 26
      name LeftHand
      direction 1.000000 0.000000 0.000000
      length 0.000000
      axis 0.0 0.0 -90.0 xyz
      dof rx ry rz
   end
   begin
      id 27
      name LeftHand_dum1
      direction 1.000000 0.000000 0.000000
      length 3.937000
      axis 0.0 0.0 -90.0 xyz
   end
   begin
      id 28
      name LeftHand_dum2
      direction 0.000000 0.000000 0.000000
      length 0.000000
      axis 0.0 0.0 -90.0 xyz
   end
   begin
      id 29
      name LeftHandThumb1
      direction 0.000000 0.000000 1.000000
      length 3.937000
      axis 0.0 0.0 -90.0 xyz
      dof rx rz ry
   end
   begin
      id 30
      name Head
      direction 0.000000 1.000000 0.000000
      length 4.527550
      axis 0.0 0.0 0.0 xyz
      dof rx ry rz
   end
:hierarchy
   begin
      root RightUpLeg_dum LeftUpLeg_dum Spine_dum
      RightUpLeg_dum RightUpLeg
      LeftUpLeg_dum LeftUpLeg
      Spine_dum Spine
      RightUpLeg RightLeg
      RightLeg RightFoot
      RightFoot RightToeBase
      LeftUpLeg LeftLeg
      LeftLeg LeftFoot
      LeftFoot LeftToeBase
      Spine Spine_dum1 Spine_dum2 Spine_dum3
      Spine_dum1 RightShoulder
      Spine_dum2 LeftShoulder
      Spine_dum3 Head
      RightShoulder RightArm
      RightArm RightForeArm
      RightForeArm RightHand
      RightHand RightHand_dum1 RightHand_dum2
      RightHand_dum2 RightHandThumb1
      LeftShoulder LeftArm
      LeftArm LeftForeArm
      LeftForeArm LeftHand
      LeftHand LeftHand_dum1 LeftHand_dum2
      LeftHand_dum2 LeftHandThumb1
   end

# File created by Blade
# Date/Time:  Thu Jan 22 19:29:39 2015
# Frame Rate: 120.000 fps
#------------------------------------------------------
:FULLY-SPECIFIED
:DEGREES
784
root 1.450431 34.155180 -0.006085 55.864524 -20.869208 -18.580640
RightUpLeg -12.195694 20.716819 -18.429233
RightLeg 154.551429 -0.000000 -0.000000
RightFoot 36.897121 11.019995 5.946228
RightToeBase -21.474392 -0.000000 0.000000
LeftUpLeg -56.836645 13.215233 -1.387249
LeftLeg 16.382869 -0.000000 -0.000000
LeftFoot -16.796541 10.462623 -7.845750
LeftToeBase 7.695782 -0.000000 -0.000000
Spine -6.585101 -6.880669 5.170324
RightShoulder -18.117500 -31.389588 -9.979628
RightArm 9.144815 -35.616118 72.039593
RightForeArm 18.066340 -0.000000 24.964989
RightHand -2.003296 -0.000000 22.984529
RightHandThumb1 -24.326973 -0.000000 -32.862282
LeftShoulder -23.400080 0.616141 36.154003
LeftArm 82.351518 -39.142560 -81.951761
LeftForeArm -11.328123 -0.000000 63.676838
LeftHand -8.000801 -0.000000 15.673423
LeftHandThumb1 -26.253704 0.000000 33.147579
Head -14.858474 30.757441 -16.927842
785
root 1.448549 34.168410 -0.016517 56.176213 -20.802834 -18.739291
RightUpLeg -12.083729 20.635254 -18.455781
RightLeg 154.537031 -0.000000 -0.000000
RightFoot 36.887725 10.941402 5.908361
RightToeBase -21.400685 -0.000000 0.000000
LeftUpLeg -57.206745 13.403105 -1.384364
LeftLeg 16.522088 -0.000000 -0.000000
LeftFoot -16.901263 10.232313 -8.235787
LeftToeBase 7.868202 -0.000000 -0.000000
Spine -6.566118 -6.793119 5.120799
RightShoulder -18.138876 -31.429337 -9.972095
RightArm 9.140076 -36.008134 71.963900
RightForeArm 18.436577 -0.000000 25.073889
RightHand -2.141016 -0.000000 22.784037
RightHandThumb1 -24.326973 -0.000000 -32.862282
LeftShoulder -23.442400 0.673896 36.150258
LeftArm 82.937435 -39.345948 -82.380521
LeftForeArm -11.185717 -0.000000 64.000552
LeftHand -8.138616 0.000000 15.617690
LeftHandThumb1 -26.253704 0.000000 33.147579
Head -14.961235 30.640790 -16.833798
786
root 1.445965 34.180183 -0.024811 56.497097 -20.728473 -18.885031
RightUpLeg -11.969104 20.510192 -18.456589
RightLeg 154.514659 -0.000000 -0.000000
RightFoot 36.912545 10.786496 5.977510
RightToeBase -21.566968 -0.000000 0.000000
LeftUpLeg -57.602582 13.587872 -1.394786
LeftLeg 16.689014 -0.000000 -0.000000
LeftFoot -16.992712 9.990950 -8.524183
LeftToeBase 8.072995 -0.000000 -0.000000
Spine -6.605089 -6.794502 5.085073
RightShoulder -18.091271 -31.478133 -10.003683
RightArm 9.144611 -36.365735 71.873269
RightForeArm 18.720652 0.000000 25.164461
RightHand -2.225963 -0.000000 22.804856
RightHandThumb1 -24.326973 -0.000000 -32.862282
LeftShoulder -23.525727 0.785605 36.167817
LeftArm 83.539232 -39.508617 -82.871018
LeftForeArm -10.984293 -0.000000 64.314021
LeftHand -8.350517 -0.000000 15.549978
LeftHandThumb1 -26.253704 0.000000 33.147579
Head -14.995766 30.613912 -16.711642
787
root 1.440654 34.192235 -0.031180 56.809129 -20.642216 -19.040189
RightUpLeg -11.839594 20.298111 -18.419376
RightLeg 154.506234 -0.000000 -0.000000
RightFoot 36.805281 10.649879 5.851145
RightToeBase -21.306915 -0.000000 0.000000
LeftUpLeg -58.003303 13.774630 -1.397345
LeftLeg 16.889821 -0.000000 -0.000000
LeftFoot -17.100202 9.782629 -8.800081
LeftToeBase 8.238433 -0.000000 -0.000000
Spine -6.620481 -6.696712 5.058186
RightShoulder -18.129975 -31.475216 -9.988002
RightArm 9.025771 -36.799872 71.814820
RightForeArm 19.170565 -0.000000 25.344116
RightHand -2.352000 0.000000 22.739121
RightHandThumb1 -24.326973 -0.000000 -32.862282
LeftShoulder -23.542449 0.742692 36.182647
LeftArm 83.993413 -39.684022 -83.184855
LeftForeArm -10.945451 0.000000 64.639461
LeftHand -8.521245 -0.000000 15.540810
LeftHandThumb1 -26.253704 0.000000 33.147579
Head -15.056352 30.521509 -16.636959
788
root 1.434708 34.201929 -0.035279 57.075370 -20.555910 -19.173126
RightUpLeg -11.653317 20.111592 -18.384607
RightLeg 154.473158 -0.000000 -0.000000
RightFoot 36.821224 10.514770 5.895789
RightToeBase -21.521827 -0.000000 0.000000
LeftUpLeg -58.366365 13.929454 -1.391516
LeftLeg 17.106109 -0.000000 -0.000000
LeftFoot -17.226467 9.593862 -9.120732
LeftToeBase 8.429590 -0.000000 -0.000000
Spine -6.597742 -6.609210 5.028899
RightShoulder -18.239165 -31.494934 -9.944826
RightArm 9.018996 -37.247400 71.709162
RightForeArm 19.502823 -0.000000 25.412125
RightHand -2.393816 -0.000000 22.784064
RightHandThumb1 -24.326973 -0.000000 -32.862282
LeftShoulder -23.556898 0.729500 36.193238
LeftArm 84.504713 -39.841493 -83.593513
LeftForeArm -10.862150 -0.000000 64.958730
LeftHand -8.684781 -0.000000 15.556607
LeftHandThumb1 -26.253704 0.000000 33.147579
Head -15.148624 30.395904 -16.601361
789
root 1.426594 34.210027 -0.038502 57.352351 -20.484418 -19.291971
RightUpLeg -11.464049 19.926030 -18.357365
RightLeg 154.448124 -0.000000 -0.000000
RightFoot 36.777638 10.539677 5.800033
RightToeBase -21.368216 -0.000000 0.000000
LeftUpLeg -58.738688 14.069950 -1.395166
LeftLeg 17.318370 -0.000000 -0.000000
LeftFoot -17.384524 9.419063 -9.448524
LeftToeBase 8.713137 -0.000000 -0.000000
Spine -6.653182 -6.651507 4.953613
RightShoulder -18.173639 -31.618410 -9.932584
RightArm 9.103725 -37.700757 71.558846
RightForeArm 20.007529 0.000000 25.462834
RightHand -2.495255 -0.000000 22.781525
RightHandThumb1 -24.326973 -0.000000 -32.862282
LeftShoulder -23.623385 0.873637 36.196807
LeftArm 85.099274 -39.995622 -83.994158
LeftForeArm -10.691945 -0.000000 65.267070
LeftHand -8.876123 -0.000000 15.534768
LeftHandThumb1 -26.253704 0.000000 33.147579
Head -15.129436 30.457710 -16.424095
790
root 1.419813 34.218056 -0.039903 57.651839 -20.406224 -19.445335
RightUpLeg -11.324572 19.671685 -18.332191
RightLeg 154.435902 -0.000000 -0.000000
RightFoot 36.688350 10.450464 5.666239
RightToeBase -21.369355 -0.000000 0.000000
LeftUpLeg -59.114203 14.210827 -1.367511
LeftLeg 17.521914 -0.000000 -0.000000
LeftFoot -17.539897 9.309489 -9.741091
LeftToeBase 8.914978 -0.000000 -0.000000
Spine -6.714949 -6.673743 4.956001
RightShoulder -18.084905 -31.644040 -9.982264
RightArm 9.001912 -38.070824 71.524624
RightForeArm 20.415551 -0.000000 25.599881
RightHand -2.644656 -0.000000 22.749470
RightHandThumb1 -24.326973 -0.000000 -32.862282
LeftShoulder -23.725729 0.915392 36.201768
LeftArm 85.546106 -40.119537 -84.332397
LeftForeArm -10.563660 -0.000000 65.556475
LeftHand -9.010185 -0.000000 15.455877
LeftHandThumb1 -26.253704 0.000000 33.147579
Head -15.178943 30.455219 -16.356219
791
root 1.408739 34.225186 -0.041355 57.913164 -20.316027 -19.609576
RightUpLeg -11.146039 19.421185 -18.244681
RightLeg 154.413094 -0.000000 -0.000000
RightFoot 36.707221 10.251394 5.701987
RightToeBase -21.490348 -0.000000 0.000000
LeftUpLeg -59.470582 14.374042 -1.342907
LeftLeg 17.758968 -0.000000 -0.000000
LeftFoot -17.699338 9.229482 -9.925452
LeftToeBase 9.112289 -0.000000 -0.000000
Spine -6.716870 -6.601927 4.951485
RightShoulder -18.108647 -31.595777 -9.981371
RightArm 8.784759 -38.428895 71.563398
RightForeArm 20.823400 -0.000000 25.750761
RightHand -2.691878 -0.000000 22.729942
RightHandThumb1 -24.326973 -0.000000 -32.862282
LeftShoulder -23.735637 0.852509 36.196810
LeftArm 85.909384 -40.307458 -84.546958
LeftForeArm -10.542594 -0.000000 65.875511
LeftHand -9.148503 -0.000000 15.337487
LeftHandThumb1 -26.253704 0.000000 33.147579
Head -15.247394 30.379747 -16.327844
792
root 1.399260 34.228623 -0.041184 58.168388 -20.229343 -19.754097
RightUpLeg -10.953827 19.189951 -18.199994
RightLeg 154.377847 -0.000000 -0.000000
RightFoot 36.678420 10.187359 5.670267
RightToeBase -21.313892 -0.000000 0.000000
LeftUpLeg -59.822551 14.503868 -1.305911
LeftLeg 18.002720 -0.000000 -0.000000
LeftFoot -17.861297 9.139248 -10.181639
LeftToeBase 9.203245 -0.000000 -0.000000
Spine -6.758185 -6.603316 4.942340
RightShoulder -18.082891 -31.672541 -9.992374
RightArm 8.742554 -38.752138 71.538136
RightForeArm 21.140989 -0.000000 25.813334
RightHand -2.657359 -0.000000 22.695069
RightHandThumb1 -24.326973 -0.000000 -32.862282
LeftShoulder -23.805868 0.922113 36.195458
LeftArm 86.458934 -40.384960 -84.987240
LeftForeArm -10.436869 0.000000 66.157251
LeftHand -9.280101 -0.000000 15.266258
LeftHandThumb1 -26.253704 0.000000 33.147579
Head -15.257897 30.408012 -16.237606
793
root 1.393003 34.234818 -0.038148 58.463543 -20.199057 -19.931599
RightUpLeg -10.862307 19.008803 -18.229497
RightLeg 154.363896 -0.000000 -0.000000
RightFoot 36.674664 10.051138 5.663280
RightToeBase -21.227392 -0.000000 0.000000
LeftUpLeg -60.183011 14.658006 -1.270782
LeftLeg 18.240970 -0.000000 -0.000000
LeftFoot -18.030807 9.133094 -10.347056
LeftToeBase 9.398012 -0.000000 -0.000000
Spine -6.824790 -6.566665 4.910545
RightShoulder -18.062548 -31.690579 -10.001626
RightArm 8.631208 -39.034105 71.538569
RightForeArm 21.477033 -0.000000 25.912676
RightHand -2.763178 -0.000000 22.692442
RightHandThumb1 -24.326973 -0.000000 -32.862282
LeftShoulder -23.888379 0.981437 36.189975
LeftArm 86.871470 -40.503425 -85.260438
LeftForeArm -10.391105 -0.000000 66.467667
LeftHand -9.410529 -0.000000 15.306051
LeftHandThumb1 -26.253704 0.000000 33.147579
Head -15.326540 30.427924 -16.216749
794
root 1.380272 34.237482 -0.035661 58.745964 -20.143262 -20.104023
RightUpLeg -10.734512 18.858583 -18.217793
RightLeg 154.338667 -0.000000 -0.000000
RightFoot 36.619191 10.106419 5.689726
RightToeBase -20.996233 -0.000000 0.000000
LeftUpLeg -60.558019 14.820519 -1.220607
LeftLeg 18.526685 -0.000000 -0.000000
LeftFoot -18.185246 9.043960 -10.555286
LeftToeBase 9.285703 -0.000000 -0.000000
Spine -6.891238 -6.546427 4.895955
RightShoulder -18.098106 -31.723452 -9.986628
RightArm 8.565790 -39.343456 71.503080
RightForeArm 21.869362 -0.000000 26.016558
RightHand -2.961789 -0.000000 22.630845
RightHandThumb1 -24.326973 -0.000000 -32.862282
LeftShoulder -23.974213 1.045521 36.172098
LeftArm 87.374397 -40.601290 -85.622203
LeftForeArm -10.258558 -0.000000 66.725685
LeftHand -9.502484 -0.000000 15.221548
LeftHandThumb1 -26.253704 0.000000 33.147579
Head -15.386755 30.463422 -16.164953
795
root 1.364134 34.238896 -0.032794 59.008243 -20.106990 -20.274699
RightUpLeg -10.594589 18.695484 -18.195135
RightLeg 154.331552 -0.000000 -0.000000
RightFoot 36.548868 10.061444 5.776957
RightToeBase -20.460351 -0.000000 0.000000
LeftUpLeg -60.916955 14.970506 -1.162836
LeftLeg 18.841116 -0.000000 -0.000000
LeftFoot -18.336950 9.058526 -10.644760
LeftToeBase 9.210752 -0.000000 -0.000000
Spine -6.951008 -6.484269 4.830246
RightShoulder -18.166981 -31.805499 -9.921232
RightArm 8.533377 -39.579978 71.476052
RightForeArm 22.121966 -0.000000 26.072220
RightHand -2.954234 0.000000 22.684880
RightHandThumb1 -24.326973 -0.000000 -32.862282
LeftShoulder -24.005252 1.128322 36.205935
LeftArm 87.825341 -40.742494 -85.948454
LeftForeArm -10.160953 -0.000000 66.993576
LeftHand -9.564738 -0.000000 15.162952
LeftHandThumb1 -26.253704 0.000000 33.147579
Head -15.407805 30.424660 -16.035583
796
root 1.354765 34.242413 -0.029267 59.301218 -20.103475 -20.481568
RightUpLeg -10.547339 18.575217 -18.236283
RightLeg 154.320038 -0.000000 -0.000000
RightFoot 36.551005 9.984869 5.809808
RightToeBase -21.032795 -0.000000 0.000000
LeftUpLeg -61.273832 15.119033 -1.072182
LeftLeg 19.142916 -0.000000 -0.000000
LeftFoot -18.465348 9.132556 -10.646634
LeftToeBase 9.190795 -0.000000 -0.000000
Spine -7.006866 -6.434069 4.791299
RightShoulder -18.169945 -31.792676 -9.929172
RightArm 8.397662 -39.774854 71.518264
RightForeArm 22.347994 -0.000000 26.169920
RightHand -2.988564 -0.000000 22.608324
RightHandThumb1 -24.326973 -0.000000 -32.862282
LeftShoulder -24.091585 1.160569 36.202026
LeftArm 88.273674 -40.878067 -86.272504
LeftForeArm -10.061083 -0.000000 67.240608
LeftHand -9.690103 0.000000 14.996297
LeftHandThumb1 -26.253704 0.000000 33.147579
Head -15.517604 30.475160 -16.032672
